<?xml version="1.0" encoding="UTF-8"?>
<svg width="18912px" height="2116px" viewBox="0 0 18912 2116" version="1.1" xmlns="http://www.w3.org/2000/svg" xmlns:xlink="http://www.w3.org/1999/xlink">
    <!-- Generator: Sketch 46.2 (44496) - http://www.bohemiancoding.com/sketch -->
    <title>Group 2</title>
    <desc>Created with Sketch.</desc>
    <defs></defs>
    <g id="Page-1" stroke="none" stroke-width="1" fill="none" fill-rule="evenodd">
        <g id="Artboard" transform="translate(-9738.000000, -13685.000000)">
            <g id="Group-2" transform="translate(9702.000000, 13325.000000)">
                <text id="ATXfloods" font-family="Helvetica" font-size="2500" font-weight="normal" fill="#FFFFFF">
                    <tspan x="0" y="2425">ATXfloods</tspan>
                </text>
                <g id="flood-logo-white-v3-atxfloods" transform="translate(11925.000000, 960.000000)" fill="#FFFFFF">
                    <g id="Group" transform="translate(1.000000, 0.000000)" stroke="#FFFFFF" fill-rule="nonzero">
                        <path d="M130.052971,0 C114.957031,72.9147656 0.720903571,150.988761 0.720903571,220.681815 C-7.67026511,308.845959 58.5201282,350.760881 130.052971,351 C201.532843,350.760881 267.723236,308.845959 259.332068,220.681815 C259.332068,150.988761 145.09594,72.9147656 130,0" id="Combined-Shape"></path>
                        <path d="M666.052971,0 C650.957031,72.9147656 536.720904,150.988761 536.720904,220.681815 C528.329735,308.845959 594.520128,350.760881 666.052971,351 C737.532843,350.760881 803.723236,308.845959 795.332068,220.681815 C795.332068,150.988761 681.09594,72.9147656 666,0" id="Combined-Shape"></path>
                        <path d="M1202.05297,0 C1186.95703,72.9147656 1072.7209,150.988761 1072.7209,220.681815 C1064.32973,308.845959 1130.52013,350.760881 1202.05297,351 C1273.53284,350.760881 1339.72324,308.845959 1331.33207,220.681815 C1331.33207,150.988761 1217.09594,72.9147656 1202,0" id="Combined-Shape"></path>
                    </g>
                    <g id="Group" transform="translate(0.000000, 493.500000)" stroke="#FFFFFF" fill-rule="nonzero">
                        <path d="M130.052971,0 C114.957031,72.9147656 0.720903571,150.988761 0.720903571,220.681815 C-7.67026511,308.845959 58.5201282,350.760881 130.052971,351 C201.532843,350.760881 267.723236,308.845959 259.332068,220.681815 C259.332068,150.988761 145.09594,72.9147656 130,0" id="Combined-Shape"></path>
                        <path d="M666.052971,0 C650.957031,72.9147656 536.720904,150.988761 536.720904,220.681815 C528.329735,308.845959 594.520128,350.760881 666.052971,351 C737.532843,350.760881 803.723236,308.845959 795.332068,220.681815 C795.332068,150.988761 681.09594,72.9147656 666,0" id="Combined-Shape"></path>
                        <path d="M1202.05297,0 C1186.95703,72.9147656 1072.7209,150.988761 1072.7209,220.681815 C1064.32973,308.845959 1130.52013,350.760881 1202.05297,351 C1273.53284,350.760881 1339.72324,308.845959 1331.33207,220.681815 C1331.33207,150.988761 1217.09594,72.9147656 1202,0" id="Combined-Shape"></path>
                    </g>
                    <path d="M131.052971,987 C115.957031,1059.91477 1.7209036,1137.98876 1.7209036,1207.68181 C-6.6702651,1295.84596 59.5201282,1337.76088 131.052971,1338 C202.532843,1337.76088 268.723236,1295.84596 260.332068,1207.68181 C260.332068,1137.98876 146.09594,1059.91477 131,987" id="Combined-Shape" stroke="#FFFFFF" fill-rule="nonzero"></path>
                    <path d="M667.052971,987 C651.957031,1059.91477 537.720904,1137.98876 537.720904,1207.68181 C529.329735,1295.84596 595.520128,1337.76088 667.052971,1338 C738.532843,1337.76088 804.723236,1295.84596 796.332068,1207.68181 C796.332068,1137.98876 682.09594,1059.91477 667,987" id="Combined-Shape" stroke="#FFFFFF" fill-rule="nonzero"></path>
                    <path d="M1203.05297,987 C1187.95703,1059.91477 1073.7209,1137.98876 1073.7209,1207.68181 C1065.32973,1295.84596 1131.52013,1337.76088 1203.05297,1338 C1274.53284,1337.76088 1340.72324,1295.84596 1332.33207,1207.68181 C1332.33207,1137.98876 1218.09594,1059.91477 1203,987" id="Combined-Shape" stroke="#FFFFFF" fill-rule="nonzero"></path>
                    <text id="beholderHQ" font-family="Helvetica" font-size="1000" font-weight="normal">
                        <tspan x="1670.23438" y="1164">beholderHQ</tspan>
                    </text>
                </g>
                <text id="powered-by" opacity="0.57591712" font-family="Helvetica" font-size="800" font-weight="normal" fill="#BEBEBE">
                    <tspan x="13549" y="936">powered by</tspan>
                </text>
            </g>
        </g>
    </g>
</svg>